<svg width="204" height="39" viewBox="0 0 204 39" fill="none" xmlns="http://www.w3.org/2000/svg">
<path d="M55.141 36.2564C55.1143 35.5858 55.0876 34.7704 55.0876 33.9587H55.061C54.8743 34.6713 54.6304 35.4677 54.398 36.1231L53.674 38.3065H52.6223L51.9859 36.1383C51.7916 35.4829 51.5897 34.6865 51.4487 33.9587H51.4296C51.3953 34.7132 51.3686 35.5782 51.3229 36.2717L51.2162 38.3979H49.9702L50.3513 32.808H52.146L52.729 34.6751C52.9157 35.3229 53.0986 36.0202 53.2319 36.6756H53.2586C53.4263 36.0278 53.6282 35.2886 53.8226 34.6675L54.4589 32.808H56.2155L56.5432 38.3979H55.2286L55.141 36.2564Z" fill="#414141"/>
<path d="M60.1744 36.9614L59.7514 38.3979H58.353L60.1744 32.808H61.9424L63.7905 38.3979H62.3426L61.8853 36.9614H60.1782H60.1744ZM61.6834 36.0164L61.3138 34.8313C61.2071 34.4998 61.1004 34.0845 61.0127 33.753H60.9936C60.906 34.0845 60.8184 34.5074 60.7193 34.8313L60.3649 36.0164H61.6834Z" fill="#414141"/>
<path d="M65.8179 32.8042H67.1515V35.2772H67.1782C67.3115 35.06 67.4526 34.8618 67.5859 34.6637L68.9386 32.8042H70.5924L68.6224 35.1857L70.699 38.3979H69.1254L67.6659 35.9821L67.1515 36.5727V38.3979H65.8179V32.808V32.8042Z" fill="#414141"/>
<path d="M73.8273 32.8042V38.3941H72.4746V32.8042H73.8273Z" fill="#414141"/>
<path d="M76.228 38.3979V32.808H77.8017L79.0363 34.858C79.3907 35.4448 79.7451 36.1421 80.008 36.7747H80.0347C79.947 36.0354 79.9204 35.281 79.9204 34.4427V32.808H81.155V38.3979H79.7413L78.4686 36.2412C78.1142 35.643 77.7256 34.9228 77.436 34.2674L77.4093 34.275C77.4436 35.0142 77.4626 35.803 77.4626 36.7137V38.3979H76.228Z" fill="#414141"/>
<path d="M88.5319 38.1387C88.1166 38.2721 87.3316 38.455 86.5467 38.455C85.4607 38.455 84.6719 38.1959 84.127 37.7005C83.5783 37.2204 83.2811 36.4888 83.2887 35.6658C83.2963 33.8063 84.7367 32.7469 86.6915 32.7469C87.4612 32.7469 88.0518 32.8879 88.3452 33.0213L88.0632 34.0349C87.7355 33.9015 87.3316 33.7948 86.6762 33.7948C85.5559 33.7948 84.7062 34.3931 84.7062 35.601C84.7062 36.8089 85.4759 37.4338 86.581 37.4338C86.8896 37.4338 87.1373 37.3995 87.244 37.35V36.1802H86.3256V35.1933H88.5433V38.1387H88.5319Z" fill="#414141"/>
<path d="M94.64 33.8673H93.0396V32.8042H97.6159V33.8673H95.9926V38.3979H94.64V33.8673Z" fill="#414141"/>
<path d="M100.92 32.8042V34.9533H103.137V32.8042H104.479V38.3941H103.137V36.0545H100.92V38.3941H99.5669V32.8042H100.92Z" fill="#414141"/>
<path d="M108.24 32.8042V38.3941H106.887V32.8042H108.24Z" fill="#414141"/>
<path d="M110.644 38.3979V32.808H112.214L113.452 34.858C113.807 35.4448 114.161 36.1421 114.424 36.7747H114.451C114.363 36.0354 114.336 35.281 114.336 34.4427V32.808H115.575V38.3979H114.161L112.888 36.2412C112.534 35.643 112.145 34.9228 111.856 34.2674L111.829 34.275C111.863 35.0142 111.882 35.803 111.882 36.7137V38.3979H110.648H110.644Z" fill="#414141"/>
<path d="M122.948 38.1387C122.533 38.2721 121.748 38.455 120.963 38.455C119.877 38.455 119.088 38.1959 118.543 37.7005C117.995 37.2204 117.697 36.4888 117.701 35.6658C117.713 33.8063 119.149 32.7469 121.104 32.7469C121.87 32.7469 122.464 32.8879 122.758 33.0213L122.476 34.0349C122.148 33.9015 121.744 33.7948 121.089 33.7948C119.965 33.7948 119.119 34.3931 119.119 35.601C119.119 36.8089 119.888 37.4338 120.993 37.4338C121.302 37.4338 121.55 37.3995 121.656 37.35V36.1802H120.738V35.1933H122.956V38.1387H122.948Z" fill="#414141"/>
<path d="M125.276 37.0947C125.638 37.2699 126.194 37.4414 126.77 37.4414C127.387 37.4414 127.715 37.2014 127.715 36.8356C127.715 36.4698 127.433 36.2868 126.716 36.0468C125.726 35.7229 125.082 35.2085 125.082 34.3969C125.082 33.4404 125.928 32.7126 127.334 32.7126C128.004 32.7126 128.5 32.846 128.854 32.9946L128.557 34.012C128.317 33.9053 127.894 33.7491 127.311 33.7491C126.728 33.7491 126.446 33.9968 126.446 34.2864C126.446 34.6445 126.781 34.8008 127.551 35.0751C128.603 35.4409 129.094 35.9553 129.094 36.7441C129.094 37.6815 128.328 38.4779 126.694 38.4779C126.015 38.4779 125.341 38.314 125.009 38.1387L125.284 37.0947H125.276Z" fill="#414141"/>
<path d="M137.801 36.0316H135.61V37.3577H138.056V38.3941H134.257V32.8042H137.931V33.8406H135.606V35.0028H137.797V36.0316H137.801Z" fill="#F17C23"/>
<path d="M141.6 36.9614L141.177 38.3979H139.782L141.6 32.808H143.368L145.212 38.3979H143.764L143.303 36.9614H141.6ZM143.109 36.0164L142.739 34.8313C142.632 34.4998 142.526 34.0845 142.442 33.753H142.423C142.335 34.0845 142.244 34.5074 142.149 34.8313L141.794 36.0164H143.113H143.109Z" fill="#F17C23"/>
<path d="M147.285 37.0947C147.647 37.2699 148.204 37.4414 148.779 37.4414C149.396 37.4414 149.724 37.2014 149.724 36.8356C149.724 36.4698 149.442 36.2868 148.726 36.0468C147.735 35.7229 147.091 35.2085 147.091 34.3969C147.091 33.4404 147.937 32.7126 149.343 32.7126C150.014 32.7126 150.509 32.846 150.863 32.9946L150.566 34.012C150.326 33.9053 149.903 33.7491 149.32 33.7491C148.737 33.7491 148.455 33.9968 148.455 34.2864C148.455 34.6445 148.79 34.8008 149.56 35.0751C150.612 35.4409 151.103 35.9553 151.103 36.7441C151.103 37.6815 150.337 38.4779 148.703 38.4779C148.025 38.4779 147.35 38.314 147.019 38.1387L147.293 37.0947H147.285Z" fill="#F17C23"/>
<path d="M154.624 38.3979V36.1079L152.742 32.8042H154.277L154.887 34.1493C155.074 34.557 155.196 34.8542 155.344 35.22H155.363C155.497 34.8733 155.638 34.5494 155.813 34.1493L156.415 32.8042H157.924L155.965 36.0659V38.3979H154.62H154.624Z" fill="#F17C23"/>
<path d="M162.828 32.8042H166.467V33.8406H164.181V35.1171H166.319V36.146H164.181V38.3941H162.828V32.8042Z" fill="#414141"/>
<path d="M174.168 35.5438C174.168 37.3766 172.983 38.4893 171.246 38.4893C169.508 38.4893 168.445 37.2357 168.445 35.6429C168.445 33.9663 169.588 32.7126 171.341 32.7126C173.094 32.7126 174.168 33.9968 174.168 35.5438ZM169.866 35.62C169.866 36.7174 170.415 37.4871 171.314 37.4871C172.213 37.4871 172.747 36.6717 172.747 35.5857C172.747 34.5798 172.232 33.7186 171.306 33.7186C170.396 33.7186 169.866 34.534 169.866 35.62Z" fill="#414141"/>
<path d="M176.287 32.8803C176.717 32.8156 177.361 32.7622 178.077 32.7622C178.961 32.7622 179.579 32.888 180.002 33.2042C180.356 33.471 180.55 33.8596 180.55 34.374C180.55 35.0866 180.013 35.5781 179.499 35.7496V35.7763C179.914 35.9325 180.143 36.3059 180.295 36.8203C180.482 37.4491 180.665 38.1807 180.779 38.3979H179.403C179.304 38.2416 179.167 37.7844 178.988 37.0947C178.832 36.3974 178.573 36.2068 178.024 36.1992H177.616V38.3979H176.283V32.8803H176.287ZM177.62 35.2847H178.15C178.82 35.2847 179.217 34.9685 179.217 34.4807C179.217 33.9663 178.847 33.7072 178.226 33.6996C177.898 33.6996 177.712 33.7263 177.616 33.7415V35.2847H177.62Z" fill="#414141"/>
<path d="M186.803 38.3979V36.1079L184.921 32.8042H186.457L187.066 34.1493C187.253 34.557 187.375 34.8542 187.527 35.22H187.546C187.676 34.8733 187.821 34.5494 187.996 34.1493L188.594 32.8042H190.103L188.145 36.0659V38.3979H186.799H186.803Z" fill="#414141"/>
<path d="M197.023 35.5438C197.023 37.3766 195.838 38.4893 194.101 38.4893C192.363 38.4893 191.3 37.2357 191.3 35.6429C191.3 33.9663 192.443 32.7126 194.196 32.7126C195.949 32.7126 197.023 33.9968 197.023 35.5438ZM192.721 35.62C192.721 36.7174 193.27 37.4871 194.169 37.4871C195.068 37.4871 195.602 36.6717 195.602 35.5857C195.602 34.5798 195.087 33.7186 194.161 33.7186C193.251 33.7186 192.721 34.534 192.721 35.62Z" fill="#414141"/>
<path d="M200.487 32.8041V36.0239C200.487 36.988 200.876 37.4757 201.561 37.4757C202.247 37.4757 202.659 37.0108 202.659 36.0239V32.8041H204V35.9401C204 37.6662 203.07 38.4855 201.516 38.4855C199.961 38.4855 199.13 37.7043 199.13 35.9211V32.8003H200.483L200.487 32.8041Z" fill="#414141"/>
<path d="M60.2621 5.5632H54.2911V28.243H49.5585V5.5632H43.6143V0.468628H60.2621V5.5632Z" fill="#F17C23"/>
<path d="M94.9832 27.2561C93.4552 28.2354 91.4585 28.727 88.9969 28.727C85.7847 28.727 83.2584 27.4733 81.4179 24.9698C79.5775 22.4626 78.6592 19.1246 78.6592 14.956C78.6592 10.513 79.6918 6.91213 81.7609 4.14955C83.83 1.38698 86.5163 0.00378418 89.8162 0.00378418C91.8624 0.00378418 93.5847 0.346726 94.9832 1.0288V7.05311C93.5809 5.94427 91.9843 5.38795 90.1934 5.38795C88.2272 5.38795 86.6383 6.20719 85.4342 7.8495C84.2263 9.48799 83.6242 11.7095 83.6242 14.5102C83.6242 17.3108 84.192 19.3342 85.3313 20.9308C86.4706 22.5273 88.0062 23.3237 89.9305 23.3237C91.8548 23.3237 93.4552 22.7293 94.9832 21.5404V27.2561Z" fill="#F17C23"/>
<path d="M115.011 28.243H110.282V16.9298H101.609V28.2392H96.8921V0.464844H101.609V11.5418H110.282V0.464844H115.011V28.2392V28.243Z" fill="#F17C23"/>
<path d="M129.288 5.5632H121.9V12.3801H128.69V17.4556H121.9V28.243H117.183V0.468628H129.288V5.5632Z" fill="#F17C23"/>
<path d="M140.712 28.727C137.713 28.727 135.267 27.4314 133.381 24.8441C131.491 22.2568 130.55 18.8808 130.55 14.7236C130.55 10.3339 131.506 6.7826 133.423 4.06956C135.34 1.35652 137.881 0 141.048 0C144.035 0 146.455 1.29555 148.299 3.89428C150.143 6.48919 151.069 9.91098 151.069 14.1596C151.069 18.4083 150.109 22.0434 148.2 24.7146C146.287 27.3857 143.791 28.7232 140.716 28.7232L140.712 28.727ZM140.918 5.38797C139.26 5.38797 137.95 6.21103 136.974 7.85714C136.003 9.50326 135.515 11.6828 135.515 14.3921C135.515 17.1013 136.003 19.319 136.974 20.9194C137.946 22.5236 139.222 23.3199 140.8 23.3199C142.377 23.3199 143.715 22.5426 144.671 20.988C145.624 19.4295 146.104 17.2728 146.104 14.5102C146.104 11.7476 145.639 9.38895 144.713 7.78856C143.787 6.18817 142.522 5.38797 140.918 5.38797Z" fill="#F17C23"/>
<path d="M170.361 28.2431H164.943L161.689 21.0947C161.441 20.5536 161.208 20.0697 160.987 19.6429C160.763 19.2161 160.538 18.8503 160.309 18.5493C160.081 18.2483 159.844 18.012 159.593 17.852C159.345 17.692 159.075 17.6119 158.785 17.6119H157.516V28.2469H152.799V0.472534H160.271C165.354 0.472534 167.896 2.99124 167.896 8.02485C167.896 8.9927 167.785 9.88815 167.561 10.7074C167.336 11.5266 167.019 12.2659 166.608 12.9251C166.2 13.5843 165.705 14.152 165.129 14.6284C164.55 15.1085 163.902 15.4819 163.194 15.7524V15.8286C163.506 15.9582 163.807 16.1678 164.097 16.4574C164.386 16.747 164.672 17.0861 164.943 17.4748C165.217 17.8596 165.476 18.2788 165.724 18.7208C165.972 19.1666 166.2 19.6048 166.406 20.0278L170.365 28.2393L170.361 28.2431ZM157.509 5.15558V12.8832H159.551C160.565 12.8832 161.376 12.4945 161.99 11.721C162.615 10.9322 162.923 9.95674 162.923 8.79837C162.923 6.37111 161.83 5.15558 159.639 5.15558H157.509Z" fill="#F17C23"/>
<path d="M185.584 27.2561C184.056 28.2354 182.06 28.727 179.598 28.727C176.386 28.727 173.859 27.4733 172.019 24.9698C170.179 22.4626 169.26 19.1246 169.26 14.956C169.26 10.513 170.293 6.91213 172.362 4.14955C174.431 1.38698 177.114 0.00378418 180.413 0.00378418C182.46 0.00378418 184.182 0.346726 185.584 1.0288V7.05311C184.182 5.94427 182.585 5.38795 180.794 5.38795C178.824 5.38795 177.239 6.20719 176.035 7.8495C174.827 9.48799 174.225 11.7095 174.225 14.5102C174.225 17.3108 174.793 19.3342 175.932 20.9308C177.072 22.5273 178.607 23.3237 180.535 23.3237C182.463 23.3237 184.06 22.7293 185.588 21.5404V27.2561H185.584Z" fill="#F17C23"/>
<path d="M77.7295 28.3535V24.7907V23.5866H66.3134V15.9733H75.8471V10.814H61.8818V28.3535H77.7295Z" fill="#F17C23"/>
<path d="M77.7295 0.361938H61.8818V5.75372H77.7295V0.361938Z" fill="#414141"/>
<path d="M203.585 28.3535V24.7907V23.5866H192.168V15.9733H201.702V10.814H187.737V28.3535H203.585Z" fill="#F17C23"/>
<path d="M203.585 0.361938H187.737V5.75372H203.585V0.361938Z" fill="#414141"/>
<path d="M4.77078 0.758325C2.14157 0.758325 0.00390625 2.89218 0.00390625 5.5252V17.9701L23.5601 0.754517H4.77078V0.758325Z" fill="#F17C23"/>
<path d="M0 33.4139C0 36.0507 2.13764 38.1807 4.76685 38.1807H8.69163V18.656L0 25.0195V33.4139Z" fill="#F17C23"/>
<path d="M30.4492 0.682098L30.4759 2.71688V38.1807H32.6631C35.2961 38.1807 37.4299 36.0507 37.4299 33.4138V5.52518C37.4299 3.03696 37.9024 -0.14858 30.453 0.682098H30.4492Z" fill="#F17C23"/>
<path d="M19.0523 22.7445L19.0942 16.785L24.4555 12.7154V7.15979L14.1597 14.7693V38.1807H18.9494L19.0218 27.5114L24.4555 23.8229V18.7626L19.0523 22.7445Z" fill="#F17C23"/>
</svg>
